<svg id="visual" viewBox="0 0 100% 100%" width="1800" height="450" xmlns="http://www.w3.org/2000/svg" xmlns:xlink="http://www.w3.org/1999/xlink" version="1.1"><rect x="0" y="0" width="1800" height="450" fill="#0b0d19"></rect><path d="M0 167L33.3 165.5C66.7 164 133.3 161 200 163.3C266.7 165.7 333.3 173.3 400 175.8C466.7 178.3 533.3 175.7 600 171.3C666.7 167 733.3 161 800 159.8C866.7 158.7 933.3 162.3 1000 163.2C1066.7 164 1133.3 162 1200 168.5C1266.7 175 1333.3 190 1400 192.2C1466.7 194.3 1533.3 183.7 1600 174C1666.7 164.3 1733.3 155.7 1766.7 151.3L1800 147L1800 451L1766.7 451C1733.3 451 1666.7 451 1600 451C1533.3 451 1466.7 451 1400 451C1333.3 451 1266.7 451 1200 451C1133.3 451 1066.7 451 1000 451C933.3 451 866.7 451 800 451C733.3 451 666.7 451 600 451C533.3 451 466.7 451 400 451C333.3 451 266.7 451 200 451C133.3 451 66.7 451 33.3 451L0 451Z" fill="#0e1120"></path><path d="M0 248L33.3 241C66.7 234 133.3 220 200 219.8C266.7 219.7 333.3 233.3 400 239.8C466.7 246.3 533.3 245.7 600 247.3C666.7 249 733.3 253 800 247.3C866.7 241.7 933.3 226.3 1000 219.5C1066.7 212.7 1133.3 214.3 1200 215.8C1266.7 217.3 1333.3 218.7 1400 221.3C1466.7 224 1533.3 228 1600 227C1666.7 226 1733.3 220 1766.7 217L1800 214L1800 451L1766.7 451C1733.3 451 1666.7 451 1600 451C1533.3 451 1466.7 451 1400 451C1333.3 451 1266.7 451 1200 451C1133.3 451 1066.7 451 1000 451C933.3 451 866.7 451 800 451C733.3 451 666.7 451 600 451C533.3 451 466.7 451 400 451C333.3 451 266.7 451 200 451C133.3 451 66.7 451 33.3 451L0 451Z" fill="#1c4560"></path><path d="M0 263L33.3 265.2C66.7 267.3 133.3 271.7 200 275.5C266.7 279.3 333.3 282.7 400 281.2C466.7 279.7 533.3 273.3 600 276.5C666.7 279.7 733.3 292.3 800 297.3C866.7 302.3 933.3 299.7 1000 298.3C1066.7 297 1133.3 297 1200 290.3C1266.7 283.7 1333.3 270.3 1400 268.7C1466.7 267 1533.3 277 1600 277C1666.7 277 1733.3 267 1766.7 262L1800 257L1800 451L1766.7 451C1733.3 451 1666.7 451 1600 451C1533.3 451 1466.7 451 1400 451C1333.3 451 1266.7 451 1200 451C1133.3 451 1066.7 451 1000 451C933.3 451 866.7 451 800 451C733.3 451 666.7 451 600 451C533.3 451 466.7 451 400 451C333.3 451 266.7 451 200 451C133.3 451 66.7 451 33.3 451L0 451Z" fill="#00829c"></path><path d="M0 309L33.3 314.5C66.7 320 133.3 331 200 331.8C266.7 332.7 333.3 323.3 400 324.3C466.7 325.3 533.3 336.7 600 339.3C666.7 342 733.3 336 800 331.2C866.7 326.3 933.3 322.7 1000 326.2C1066.7 329.7 1133.3 340.3 1200 338.7C1266.7 337 1333.3 323 1400 318.7C1466.7 314.3 1533.3 319.7 1600 320.2C1666.7 320.7 1733.3 316.3 1766.7 314.2L1800 312L1800 451L1766.7 451C1733.3 451 1666.7 451 1600 451C1533.3 451 1466.7 451 1400 451C1333.3 451 1266.7 451 1200 451C1133.3 451 1066.7 451 1000 451C933.3 451 866.7 451 800 451C733.3 451 666.7 451 600 451C533.3 451 466.7 451 400 451C333.3 451 266.7 451 200 451C133.3 451 66.7 451 33.3 451L0 451Z" fill="#00c3b6"></path><path d="M0 383L33.3 384.3C66.7 385.7 133.3 388.3 200 391.3C266.7 394.3 333.3 397.7 400 394.7C466.7 391.7 533.3 382.3 600 382.8C666.7 383.3 733.3 393.7 800 393.2C866.7 392.7 933.3 381.3 1000 375.8C1066.7 370.3 1133.3 370.7 1200 374.8C1266.7 379 1333.3 387 1400 387.5C1466.7 388 1533.3 381 1600 378.5C1666.7 376 1733.3 378 1766.7 379L1800 380L1800 451L1766.7 451C1733.3 451 1666.7 451 1600 451C1533.3 451 1466.7 451 1400 451C1333.3 451 1266.7 451 1200 451C1133.3 451 1066.7 451 1000 451C933.3 451 866.7 451 800 451C733.3 451 666.7 451 600 451C533.3 451 466.7 451 400 451C333.3 451 266.7 451 200 451C133.3 451 66.7 451 33.3 451L0 451Z" fill="#60ff90"></path></svg>