<?xml version="1.0" encoding="UTF-8"?>
<svg id="Layer_1" data-name="Layer 1" xmlns="http://www.w3.org/2000/svg" viewBox="0 0 18 18">
  <path d="M16.67,0H1.33C.59,0,0,.59,0,1.33v15.34c0,.73,.59,1.33,1.33,1.33h15.34c.73,0,1.33-.59,1.33-1.33V1.33c0-.73-.59-1.33-1.33-1.33ZM5.36,15.33H2.66V6.74h2.71V15.33Zm-1.35-9.79c-.86,0-1.56-.66-1.56-1.55s.7-1.55,1.56-1.55,1.56,.66,1.56,1.55-.7,1.55-1.56,1.55ZM15.34,15.34h-2.71v-4.7c0-1.39-.59-1.81-1.35-1.81-.8,0-1.59,.6-1.59,1.85v4.66h-2.71V6.74h2.6v1.19h.03c.26-.53,1.18-1.43,2.57-1.43,1.51,0,3.14,.9,3.14,3.52v5.32Z"/>
</svg>