<?xml version="1.0" standalone="no"?>
<!DOCTYPE svg PUBLIC "-//W3C//DTD SVG 20010904//EN"
 "http://www.w3.org/TR/2001/REC-SVG-20010904/DTD/svg10.dtd">
<svg version="1.0" xmlns="http://www.w3.org/2000/svg"
 width="500.000000pt" height="500.000000pt" viewBox="0 0 500.000000 500.000000"
 preserveAspectRatio="xMidYMid meet">
<metadata>
Created by potrace 1.14, written by Peter Selinger 2001-2017
</metadata>
<g transform="translate(0.000000,500.000000) scale(0.100000,-0.100000)"
fill="#000000" stroke="none">
<path d="M2397 4404 c-3 -3 -34 -7 -69 -9 -34 -2 -80 -7 -100 -10 -41 -7 -219
-77 -254 -100 -12 -7 -39 -16 -60 -18 -38 -5 -60 -9 -139 -27 -22 -5 -53 -12
-70 -14 -16 -2 -64 -12 -105 -21 -41 -9 -82 -18 -90 -19 -20 -3 -55 -12 -175
-47 -213 -62 -287 -104 -331 -184 -10 -19 -22 -35 -26 -35 -5 0 -8 -5 -8 -11
0 -6 -14 -29 -31 -50 l-31 -39 46 -20 c25 -10 63 -21 84 -22 23 -2 50 -13 69
-29 30 -25 37 -43 48 -124 3 -23 7 -50 9 -60 3 -18 16 -102 21 -145 5 -36 17
-109 25 -158 5 -29 9 -56 9 -60 -1 -4 0 -10 1 -14 5 -14 6 -23 14 -83 4 -33
10 -73 12 -90 2 -16 6 -41 9 -55 3 -14 7 -43 10 -65 3 -22 7 -51 10 -65 5 -25
13 -78 20 -135 2 -16 7 -41 10 -55 3 -14 7 -45 10 -70 3 -25 8 -57 11 -72 3
-15 7 -39 9 -55 2 -15 6 -41 9 -58 3 -16 8 -50 11 -75 3 -25 8 -52 10 -60 2
-8 7 -37 10 -65 3 -27 7 -61 10 -75 9 -47 15 -85 21 -130 3 -25 7 -56 9 -69 2
-13 7 -45 11 -70 4 -25 8 -55 10 -66 2 -11 11 -65 19 -120 8 -55 18 -113 20
-130 20 -113 25 -145 30 -180 3 -22 8 -49 10 -61 3 -12 7 -39 10 -60 3 -21 8
-50 11 -62 16 -74 15 -99 -6 -134 -11 -19 -22 -56 -25 -82 -3 -25 -7 -59 -9
-74 -3 -15 -8 -56 -11 -92 -4 -36 -8 -72 -10 -80 -2 -14 -13 -109 -21 -185 -1
-16 -6 -50 -9 -75 -3 -25 -8 -61 -9 -80 -4 -32 -9 -73 -22 -180 -2 -19 -6 -64
-10 -99 -3 -36 -7 -68 -10 -73 -3 -4 462 -7 1033 -6 1031 3 1038 3 1036 23 -1
11 -5 49 -8 85 -4 36 -8 77 -11 93 -2 15 -6 39 -8 55 -3 15 -7 59 -11 97 -3
39 -8 84 -11 100 -3 17 -7 46 -9 65 -2 19 -6 58 -10 85 -7 59 -11 97 -20 185
-3 36 -8 76 -11 90 -2 14 -7 45 -10 70 -3 25 -10 53 -15 63 -6 10 -6 24 0 35
5 9 12 35 15 57 4 22 11 65 16 95 5 30 12 71 14 90 3 20 7 47 10 60 3 14 8 41
10 60 4 34 15 100 21 130 2 8 4 20 4 27 1 6 11 14 24 18 12 3 31 10 42 15 19
8 118 41 140 46 6 2 85 29 177 61 156 55 170 61 234 118 84 74 146 138 199
206 49 63 70 89 88 109 75 83 88 140 81 350 -7 213 -12 259 -50 460 -2 14 -11
63 -20 110 -8 47 -17 96 -20 110 -2 14 -7 40 -9 58 -3 19 -11 39 -18 46 -7 8
-33 44 -57 82 -54 83 -53 82 -110 144 -40 44 -68 60 -265 149 -216 98 -220
101 -221 131 0 21 10 41 33 66 38 42 41 33 -55 176 -56 85 -71 101 -116 122
-45 21 -147 50 -216 63 -14 2 -41 8 -60 13 -19 5 -51 11 -70 14 -19 3 -73 13
-120 22 -47 9 -90 17 -96 18 -7 1 -18 7 -25 13 -16 13 -152 69 -219 90 -25 8
-97 16 -160 19 -63 3 -120 7 -127 9 -6 2 -13 1 -16 -1z m1263 -1154 c19 -4 82
-21 140 -38 58 -16 146 -40 196 -53 90 -23 93 -24 124 -71 l31 -49 -7 -177
c-3 -97 -8 -206 -9 -242 -2 -36 -4 -130 -4 -210 l-1 -145 -47 -22 c-27 -11
-68 -30 -93 -41 -25 -11 -65 -23 -90 -26 -25 -4 -56 -9 -70 -11 -27 -5 -62
-10 -125 -20 -22 -3 -78 -12 -125 -19 -91 -15 -103 -13 -96 12 2 10 7 53 11
97 4 44 8 94 10 110 3 17 7 59 10 95 3 36 7 83 10 105 5 52 14 143 21 225 3
36 7 81 9 100 2 19 7 64 10 100 3 36 8 83 10 105 7 62 18 169 18 183 0 8 6 10
16 6 9 -3 32 -10 51 -14z"/>
</g>
</svg>
